<svg width="42" height="32" viewBox="0 0 42 32" fill="none" xmlns="http://www.w3.org/2000/svg">
<path d="M40.1727 17.7823C38.9548 16.2584 37.3983 15.2707 35.5021 14.8185C36.1005 13.9144 36.3989 12.9081 36.3989 11.7998C36.3989 10.2539 35.8519 8.93422 34.7585 7.84035C33.665 6.74686 32.3452 6.19989 30.7993 6.19989C29.4139 6.19989 28.2036 6.65201 27.1684 7.55625C26.3084 5.45616 24.9334 3.77187 23.0451 2.50331C21.1568 1.23437 19.0749 0.599976 16.7997 0.599976C13.7082 0.599976 11.0685 1.694 8.88099 3.88151C6.69332 6.06849 5.59984 8.70835 5.59984 11.8C5.59984 11.9896 5.61447 12.3032 5.64358 12.7405C3.92283 13.5426 2.55214 14.7457 1.53105 16.3497C0.510351 17.9541 0 19.7038 0 21.6C0 24.298 0.959024 26.6053 2.87654 28.523C4.79412 30.4413 7.102 31.3998 9.79987 31.3998H33.6001C35.9185 31.3998 37.898 30.5792 39.5389 28.9389C41.1795 27.2986 41.9999 25.319 41.9999 22.9998C41.9997 21.0456 41.3907 19.3067 40.1727 17.7823ZM27.7812 18.6245L20.103 26.3032C19.9719 26.434 19.8041 26.4998 19.5998 26.4998C19.3957 26.4998 19.2279 26.434 19.0967 26.3032L11.3969 18.603C11.2656 18.4719 11.2001 18.3041 11.2001 18.0998C11.2001 17.9103 11.2691 17.7462 11.4076 17.6077C11.5464 17.4692 11.7102 17.4 11.8997 17.4H16.7997V9.70017C16.7997 9.51062 16.8691 9.3465 17.0075 9.20775C17.1461 9.06945 17.3101 9.00027 17.4996 9.00027H21.7001C21.8899 9.00027 22.0532 9.06922 22.1925 9.20775C22.3307 9.3465 22.3999 9.51062 22.3999 9.70017V17.4H27.2999C27.5041 17.4 27.6719 17.4655 27.8027 17.5966C27.9341 17.7277 27.999 17.8955 27.999 18.0998C27.999 18.2755 27.9267 18.4498 27.7812 18.6245Z" fill="white"/>
</svg>
