<svg width="20" height="20" viewBox="0 0 20 20" fill="none" xmlns="http://www.w3.org/2000/svg">
<g clip-path="url(#clip0)">
<path d="M18.896 3.53445e-08H1.10306C0.493774 0.000305211 -0.000152553 0.494537 3.53445e-08 1.10397V18.8969C0.000305211 19.5062 0.494537 20.0002 1.10397 20H18.896C19.5056 20.0002 19.9998 19.5061 20 18.8965C20 18.8963 20 18.8962 20 18.896V1.10306C19.9997 0.493774 19.5055 -0.000152553 18.896 3.53445e-08Z" fill="#4267B2"/>
<path d="M13.8086 20V12.2657H16.416L16.8066 9.23831H13.8086V7.31021C13.8086 6.43573 14.0514 5.83987 15.3053 5.83987H16.8945V3.13953C16.618 3.10275 15.6694 3.02051 14.5656 3.02051C12.2609 3.02051 10.6836 4.42676 10.6836 7.01038V9.23831H8.08594V12.2657H10.6836V20H13.8086Z" fill="white"/>
</g>
<defs>
<clipPath id="clip0">
<rect width="20" height="20" fill="white"/>
</clipPath>
</defs>
</svg>
