<svg width="76" height="41" viewBox="0 0 76 41" fill="none" xmlns="http://www.w3.org/2000/svg">
<path d="M23.8086 38H22.6611V33.3906C22.6611 32.8405 22.6742 32.4043 22.7002 32.082C22.6253 32.1602 22.5326 32.2464 22.4219 32.3408C22.3145 32.4352 21.9499 32.7347 21.3281 33.2393L20.752 32.5117L22.8516 30.8613H23.8086V38ZM30.9912 34.4307C30.9912 35.6709 30.791 36.5921 30.3906 37.1943C29.9935 37.7965 29.3848 38.0977 28.5645 38.0977C27.7702 38.0977 27.168 37.7868 26.7578 37.165C26.3477 36.5433 26.1426 35.6318 26.1426 34.4307C26.1426 33.1709 26.3411 32.2432 26.7383 31.6475C27.1387 31.0485 27.7474 30.749 28.5645 30.749C29.362 30.749 29.9658 31.0615 30.376 31.6865C30.7861 32.3115 30.9912 33.2262 30.9912 34.4307ZM27.3047 34.4307C27.3047 35.404 27.404 36.099 27.6025 36.5156C27.8044 36.9323 28.125 37.1406 28.5645 37.1406C29.0039 37.1406 29.3245 36.929 29.5264 36.5059C29.7314 36.0827 29.834 35.391 29.834 34.4307C29.834 33.4736 29.7314 32.7819 29.5264 32.3555C29.3245 31.9258 29.0039 31.7109 28.5645 31.7109C28.125 31.7109 27.8044 31.9209 27.6025 32.3408C27.404 32.7607 27.3047 33.4574 27.3047 34.4307ZM34.2773 30.7686C34.9544 30.7686 35.4899 30.9248 35.8838 31.2373C36.2777 31.5465 36.4746 31.9616 36.4746 32.4824C36.4746 33.2148 36.0352 33.7975 35.1562 34.2305C35.7161 34.5104 36.1133 34.805 36.3477 35.1143C36.5853 35.4235 36.7041 35.7686 36.7041 36.1494C36.7041 36.7386 36.4876 37.2106 36.0547 37.5654C35.6217 37.9202 35.0358 38.0977 34.2969 38.0977C33.5221 38.0977 32.9215 37.9316 32.4951 37.5996C32.0687 37.2676 31.8555 36.7972 31.8555 36.1885C31.8555 35.7913 31.9661 35.4349 32.1875 35.1191C32.4121 34.8001 32.7783 34.5169 33.2861 34.2695C32.8499 34.0091 32.5391 33.734 32.3535 33.4443C32.168 33.1546 32.0752 32.8291 32.0752 32.4678C32.0752 31.9502 32.2786 31.5384 32.6855 31.2324C33.0924 30.9232 33.623 30.7686 34.2773 30.7686ZM32.9541 36.1494C32.9541 36.488 33.0729 36.7516 33.3105 36.9404C33.5482 37.126 33.8704 37.2188 34.2773 37.2188C34.6973 37.2188 35.0228 37.1227 35.2539 36.9307C35.4883 36.7354 35.6055 36.4717 35.6055 36.1396C35.6055 35.876 35.498 35.6351 35.2832 35.417C35.0684 35.1989 34.7428 34.9971 34.3066 34.8115L34.165 34.748C33.7354 34.9368 33.4261 35.1452 33.2373 35.373C33.0485 35.5977 32.9541 35.8564 32.9541 36.1494ZM34.2676 31.6523C33.9421 31.6523 33.68 31.7337 33.4814 31.8965C33.2829 32.056 33.1836 32.2741 33.1836 32.5508C33.1836 32.7201 33.2194 32.8714 33.291 33.0049C33.3626 33.1383 33.4668 33.2604 33.6035 33.3711C33.7402 33.4785 33.9714 33.6087 34.2969 33.7617C34.6875 33.5892 34.9626 33.4085 35.1221 33.2197C35.2848 33.0277 35.3662 32.8047 35.3662 32.5508C35.3662 32.2741 35.2653 32.056 35.0635 31.8965C34.8649 31.7337 34.5996 31.6523 34.2676 31.6523ZM42.417 34.4307C42.417 35.6709 42.2168 36.5921 41.8164 37.1943C41.4193 37.7965 40.8105 38.0977 39.9902 38.0977C39.196 38.0977 38.5938 37.7868 38.1836 37.165C37.7734 36.5433 37.5684 35.6318 37.5684 34.4307C37.5684 33.1709 37.7669 32.2432 38.1641 31.6475C38.5645 31.0485 39.1732 30.749 39.9902 30.749C40.7878 30.749 41.3916 31.0615 41.8018 31.6865C42.2119 32.3115 42.417 33.2262 42.417 34.4307ZM38.7305 34.4307C38.7305 35.404 38.8298 36.099 39.0283 36.5156C39.2301 36.9323 39.5508 37.1406 39.9902 37.1406C40.4297 37.1406 40.7503 36.929 40.9521 36.5059C41.1572 36.0827 41.2598 35.391 41.2598 34.4307C41.2598 33.4736 41.1572 32.7819 40.9521 32.3555C40.7503 31.9258 40.4297 31.7109 39.9902 31.7109C39.5508 31.7109 39.2301 31.9209 39.0283 32.3408C38.8298 32.7607 38.7305 33.4574 38.7305 34.4307ZM46.4111 38.0977C45.7275 38.0977 45.1969 37.8519 44.8193 37.3604H44.751C44.7965 37.8161 44.8193 38.0928 44.8193 38.1904V40.4023H43.6719V32.5996H44.5996C44.6257 32.7005 44.6794 32.9414 44.7607 33.3223H44.8193C45.1774 32.7754 45.7145 32.502 46.4307 32.502C47.1045 32.502 47.6286 32.7461 48.0029 33.2344C48.3805 33.7227 48.5693 34.4079 48.5693 35.29C48.5693 36.1722 48.3773 36.8607 47.9932 37.3555C47.6123 37.8503 47.085 38.0977 46.4111 38.0977ZM46.1328 33.4395C45.6771 33.4395 45.3434 33.5729 45.1318 33.8398C44.9235 34.1068 44.8193 34.5332 44.8193 35.1191V35.29C44.8193 35.9476 44.9235 36.4245 45.1318 36.7207C45.3402 37.0137 45.6803 37.1602 46.1523 37.1602C46.5495 37.1602 46.8555 36.9974 47.0703 36.6719C47.2852 36.3464 47.3926 35.8825 47.3926 35.2803C47.3926 34.6748 47.2852 34.2174 47.0703 33.9082C46.8587 33.5957 46.5462 33.4395 46.1328 33.4395Z" fill="#777777"/>
<path d="M3.62305 21H1.96289V6.72266H9.92188V8.19727H3.62305V13.4219H9.54102V14.8965H3.62305V21ZM23.0762 6.72266V15.9609C23.0762 17.5885 22.5846 18.8678 21.6016 19.7988C20.6185 20.7298 19.2676 21.1953 17.5488 21.1953C15.8301 21.1953 14.4987 20.7266 13.5547 19.7891C12.6172 18.8516 12.1484 17.5625 12.1484 15.9219V6.72266H13.8086V16.0391C13.8086 17.2305 14.1341 18.1452 14.7852 18.7832C15.4362 19.4212 16.3932 19.7402 17.6562 19.7402C18.8607 19.7402 19.7884 19.4212 20.4395 18.7832C21.0905 18.1387 21.416 17.2174 21.416 16.0195V6.72266H23.0762ZM26.8652 21V6.72266H28.5254V19.4961H34.8242V21H26.8652ZM37.2559 21V6.72266H38.916V19.4961H45.2148V21H37.2559ZM59.1797 21H56.1621V14.8379H50.5078V21H47.4805V6.72266H50.5078V12.3184H56.1621V6.72266H59.1797V21ZM74.6387 13.7246C74.6387 16.0749 73.9681 17.875 72.627 19.125C71.2923 20.375 69.362 21 66.8359 21H62.793V6.72266H67.2754C69.6061 6.72266 71.416 7.33789 72.7051 8.56836C73.9941 9.79883 74.6387 11.5176 74.6387 13.7246ZM71.4941 13.8027C71.4941 10.7363 70.14 9.20312 67.4316 9.20312H65.8203V18.5H67.1191C70.0358 18.5 71.4941 16.9342 71.4941 13.8027Z" fill="#393939"/>
</svg>
