<svg width="25" height="43" viewBox="0 0 25 43" fill="none" xmlns="http://www.w3.org/2000/svg">
<path d="M22.0852 0H2.9146C1.31745 0 0.0102539 1.30597 0.0102539 2.90434V40.0944C0.0102539 41.6928 1.31745 43 2.9146 43H22.0852C23.6824 43 24.9896 41.6953 24.9896 40.0957V2.90434C24.9896 1.30597 23.6824 0 22.0852 0ZM9.4334 2.09349H15.5664C15.7605 2.09349 15.9178 2.25074 15.9178 2.44609C15.9178 2.6402 15.7605 2.79746 15.5664 2.79746H9.4334C9.23928 2.79746 9.08203 2.6402 9.08203 2.44609C9.08203 2.25074 9.23928 2.09349 9.4334 2.09349ZM12.4999 41.5478C11.6977 41.5478 11.0477 40.8979 11.0477 40.0944C11.0477 39.2909 11.6977 38.6423 12.4999 38.6423C13.3022 38.6423 13.9521 39.2909 13.9521 40.0944C13.9521 40.8979 13.3022 41.5478 12.4999 41.5478ZM22.9686 37.625H2.03125V4.60591H22.9686V37.625Z" fill="#393939"/>
</svg>
