<svg width="28" height="41" viewBox="0 0 28 41" fill="none" xmlns="http://www.w3.org/2000/svg">
<path d="M5.53223 36.4424H4.57031V38H3.45215V36.4424H0.19043V35.5586L3.45215 30.8418H4.57031V35.4902H5.53223V36.4424ZM3.45215 35.4902V33.6982C3.45215 33.0602 3.46842 32.5378 3.50098 32.1309H3.46191C3.37077 32.3457 3.22754 32.6061 3.03223 32.9121L1.25977 35.4902H3.45215ZM8.56445 30.7686C9.24154 30.7686 9.77702 30.9248 10.1709 31.2373C10.5648 31.5465 10.7617 31.9616 10.7617 32.4824C10.7617 33.2148 10.3223 33.7975 9.44336 34.2305C10.0033 34.5104 10.4004 34.805 10.6348 35.1143C10.8724 35.4235 10.9912 35.7686 10.9912 36.1494C10.9912 36.7386 10.7747 37.2106 10.3418 37.5654C9.90885 37.9202 9.32292 38.0977 8.58398 38.0977C7.80924 38.0977 7.20866 37.9316 6.78223 37.5996C6.35579 37.2676 6.14258 36.7972 6.14258 36.1885C6.14258 35.7913 6.25326 35.4349 6.47461 35.1191C6.69922 34.8001 7.06543 34.5169 7.57324 34.2695C7.13704 34.0091 6.82617 33.734 6.64062 33.4443C6.45508 33.1546 6.3623 32.8291 6.3623 32.4678C6.3623 31.9502 6.56576 31.5384 6.97266 31.2324C7.37956 30.9232 7.91016 30.7686 8.56445 30.7686ZM7.24121 36.1494C7.24121 36.488 7.36003 36.7516 7.59766 36.9404C7.83529 37.126 8.15755 37.2188 8.56445 37.2188C8.98438 37.2188 9.3099 37.1227 9.54102 36.9307C9.77539 36.7354 9.89258 36.4717 9.89258 36.1396C9.89258 35.876 9.78516 35.6351 9.57031 35.417C9.35547 35.1989 9.02995 34.9971 8.59375 34.8115L8.45215 34.748C8.02246 34.9368 7.71322 35.1452 7.52441 35.373C7.33561 35.5977 7.24121 35.8564 7.24121 36.1494ZM8.55469 31.6523C8.22917 31.6523 7.96712 31.7337 7.76855 31.8965C7.56999 32.056 7.4707 32.2741 7.4707 32.5508C7.4707 32.7201 7.50651 32.8714 7.57812 33.0049C7.64974 33.1383 7.75391 33.2604 7.89062 33.3711C8.02734 33.4785 8.25846 33.6087 8.58398 33.7617C8.97461 33.5892 9.24967 33.4085 9.40918 33.2197C9.57194 33.0277 9.65332 32.8047 9.65332 32.5508C9.65332 32.2741 9.55241 32.056 9.35059 31.8965C9.15202 31.7337 8.88672 31.6523 8.55469 31.6523ZM16.7041 34.4307C16.7041 35.6709 16.5039 36.5921 16.1035 37.1943C15.7064 37.7965 15.0977 38.0977 14.2773 38.0977C13.4831 38.0977 12.8809 37.7868 12.4707 37.165C12.0605 36.5433 11.8555 35.6318 11.8555 34.4307C11.8555 33.1709 12.054 32.2432 12.4512 31.6475C12.8516 31.0485 13.4603 30.749 14.2773 30.749C15.0749 30.749 15.6787 31.0615 16.0889 31.6865C16.499 32.3115 16.7041 33.2262 16.7041 34.4307ZM13.0176 34.4307C13.0176 35.404 13.1169 36.099 13.3154 36.5156C13.5173 36.9323 13.8379 37.1406 14.2773 37.1406C14.7168 37.1406 15.0374 36.929 15.2393 36.5059C15.4443 36.0827 15.5469 35.391 15.5469 34.4307C15.5469 33.4736 15.4443 32.7819 15.2393 32.3555C15.0374 31.9258 14.7168 31.7109 14.2773 31.7109C13.8379 31.7109 13.5173 31.9209 13.3154 32.3408C13.1169 32.7607 13.0176 33.4574 13.0176 34.4307ZM20.6982 38.0977C20.0146 38.0977 19.484 37.8519 19.1064 37.3604H19.0381C19.0837 37.8161 19.1064 38.0928 19.1064 38.1904V40.4023H17.959V32.5996H18.8867C18.9128 32.7005 18.9665 32.9414 19.0479 33.3223H19.1064C19.4645 32.7754 20.0016 32.502 20.7178 32.502C21.3916 32.502 21.9157 32.7461 22.29 33.2344C22.6676 33.7227 22.8564 34.4079 22.8564 35.29C22.8564 36.1722 22.6644 36.8607 22.2803 37.3555C21.8994 37.8503 21.3721 38.0977 20.6982 38.0977ZM20.4199 33.4395C19.9642 33.4395 19.6305 33.5729 19.4189 33.8398C19.2106 34.1068 19.1064 34.5332 19.1064 35.1191V35.29C19.1064 35.9476 19.2106 36.4245 19.4189 36.7207C19.6273 37.0137 19.9674 37.1602 20.4395 37.1602C20.8366 37.1602 21.1426 36.9974 21.3574 36.6719C21.5723 36.3464 21.6797 35.8825 21.6797 35.2803C21.6797 34.6748 21.5723 34.2174 21.3574 33.9082C21.1458 33.5957 20.8333 33.4395 20.4199 33.4395Z" fill="#777777"/>
<path d="M12.2246 17.0352C12.2246 18.3242 11.7591 19.3398 10.8281 20.082C9.90365 20.8242 8.61458 21.1953 6.96094 21.1953C5.4375 21.1953 4.08984 20.9089 2.91797 20.3359V17.5234C3.88151 17.9531 4.69531 18.2559 5.35938 18.4316C6.02995 18.6074 6.64193 18.6953 7.19531 18.6953C7.85938 18.6953 8.36719 18.5684 8.71875 18.3145C9.07682 18.0605 9.25586 17.6829 9.25586 17.1816C9.25586 16.9017 9.17773 16.6543 9.02148 16.4395C8.86523 16.2181 8.63411 16.0065 8.32812 15.8047C8.02865 15.6029 7.41341 15.2806 6.48242 14.8379C5.61003 14.4277 4.95573 14.0339 4.51953 13.6562C4.08333 13.2786 3.73503 12.8392 3.47461 12.3379C3.21419 11.8366 3.08398 11.2507 3.08398 10.5801C3.08398 9.31706 3.51042 8.32422 4.36328 7.60156C5.22266 6.87891 6.40755 6.51758 7.91797 6.51758C8.66016 6.51758 9.36654 6.60547 10.0371 6.78125C10.7142 6.95703 11.4206 7.20443 12.1562 7.52344L11.1797 9.87695C10.418 9.56445 9.78646 9.34635 9.28516 9.22266C8.79036 9.09896 8.30208 9.03711 7.82031 9.03711C7.2474 9.03711 6.80794 9.17057 6.50195 9.4375C6.19596 9.70443 6.04297 10.0527 6.04297 10.4824C6.04297 10.7493 6.10482 10.9837 6.22852 11.1855C6.35221 11.3809 6.54753 11.5729 6.81445 11.7617C7.08789 11.944 7.72917 12.276 8.73828 12.7578C10.0729 13.3958 10.9876 14.0371 11.4824 14.6816C11.9772 15.3197 12.2246 16.1042 12.2246 17.0352ZM26.6582 13.7246C26.6582 16.0749 25.9876 17.875 24.6465 19.125C23.3118 20.375 21.3815 21 18.8555 21H14.8125V6.72266H19.2949C21.6257 6.72266 23.4355 7.33789 24.7246 8.56836C26.0137 9.79883 26.6582 11.5176 26.6582 13.7246ZM23.5137 13.8027C23.5137 10.7363 22.1595 9.20312 19.4512 9.20312H17.8398V18.5H19.1387C22.0553 18.5 23.5137 16.9342 23.5137 13.8027Z" fill="#393939"/>
</svg>
