<svg width="13" height="12" viewBox="0 0 13 12" fill="none" xmlns="http://www.w3.org/2000/svg">
<path d="M6.02447 1.08156C6.17415 0.620903 6.82585 0.620903 6.97553 1.08156L7.70833 3.33688C7.90914 3.95492 8.48507 4.37336 9.13491 4.37336L11.5063 4.37336C11.9907 4.37336 12.192 4.99316 11.8002 5.27786L9.8817 6.67173C9.35597 7.0537 9.13598 7.73075 9.33679 8.34878L10.0696 10.6041C10.2193 11.0648 9.69203 11.4478 9.30017 11.1631L7.38168 9.76925C6.85595 9.38729 6.14405 9.38729 5.61832 9.76925L3.69983 11.1631C3.30797 11.4478 2.78073 11.0648 2.93041 10.6041L3.66321 8.34878C3.86402 7.73075 3.64403 7.0537 3.1183 6.67173L1.19981 5.27786C0.807953 4.99316 1.00934 4.37336 1.4937 4.37336L3.86509 4.37336C4.51493 4.37336 5.09086 3.95491 5.29167 3.33688L6.02447 1.08156Z" stroke="#FFB119"/>
</svg>
