<svg width="97" height="41" viewBox="0 0 97 41" fill="none" xmlns="http://www.w3.org/2000/svg">
<path d="M12.7441 6.72266V15.9609C12.7441 17.5885 12.2526 18.8678 11.2695 19.7988C10.2865 20.7298 8.93555 21.1953 7.2168 21.1953C5.49805 21.1953 4.16667 20.7266 3.22266 19.7891C2.28516 18.8516 1.81641 17.5625 1.81641 15.9219V6.72266H3.47656V16.0391C3.47656 17.2305 3.80208 18.1452 4.45312 18.7832C5.10417 19.4212 6.0612 19.7402 7.32422 19.7402C8.52865 19.7402 9.45638 19.4212 10.1074 18.7832C10.7585 18.1387 11.084 17.2174 11.084 16.0195V6.72266H12.7441ZM16.5332 21V6.72266H18.1934V19.4961H24.4922V21H16.5332ZM31.3184 21H29.6582V8.19727H25.1367V6.72266H35.8398V8.19727H31.3184V21ZM39.6582 15.0625V21H37.998V6.72266H41.9141C43.6654 6.72266 44.9577 7.05794 45.791 7.72852C46.6309 8.39909 47.0508 9.4082 47.0508 10.7559C47.0508 12.6439 46.0938 13.9199 44.1797 14.584L48.0566 21H46.0938L42.6367 15.0625H39.6582ZM39.6582 13.6367H41.9336C43.1055 13.6367 43.9648 13.4056 44.5117 12.9434C45.0586 12.4746 45.332 11.7747 45.332 10.8438C45.332 9.89974 45.0521 9.2194 44.4922 8.80273C43.9388 8.38607 43.0469 8.17773 41.8164 8.17773H39.6582V13.6367ZM59.3359 21L57.5586 16.459H51.8359L50.0781 21H48.3984L54.043 6.66406H55.4395L61.0547 21H59.3359ZM57.041 14.9648L55.3809 10.541C55.166 9.98112 54.9447 9.29427 54.7168 8.48047C54.5736 9.10547 54.3685 9.79232 54.1016 10.541L52.4219 14.9648H57.041ZM74.5508 21H71.5332V14.8379H65.8789V21H62.8516V6.72266H65.8789V12.3184H71.5332V6.72266H74.5508V21ZM90.0098 13.7246C90.0098 16.0749 89.3392 17.875 87.998 19.125C86.6634 20.375 84.7331 21 82.207 21H78.1641V6.72266H82.6465C84.9772 6.72266 86.7871 7.33789 88.0762 8.56836C89.3652 9.79883 90.0098 11.5176 90.0098 13.7246ZM86.8652 13.8027C86.8652 10.7363 85.5111 9.20312 82.8027 9.20312H81.1914V18.5H82.4902C85.4069 18.5 86.8652 16.9342 86.8652 13.8027Z" fill="#393939"/>
<path d="M4.62891 38L4.46777 37.292H4.40918C4.24967 37.5426 4.02181 37.7396 3.72559 37.8828C3.43262 38.026 3.09733 38.0977 2.71973 38.0977C2.06543 38.0977 1.57715 37.9349 1.25488 37.6094C0.932617 37.2839 0.771484 36.7907 0.771484 36.1299V32.5996H1.92871V35.9297C1.92871 36.3431 2.01335 36.654 2.18262 36.8623C2.35189 37.0674 2.61719 37.1699 2.97852 37.1699C3.46029 37.1699 3.81348 37.0267 4.03809 36.7402C4.26595 36.4505 4.37988 35.9671 4.37988 35.29V32.5996H5.53223V38H4.62891ZM8.31543 38H7.16797V30.4023H8.31543V38ZM11.9727 37.1699C12.2526 37.1699 12.5326 37.126 12.8125 37.0381V37.9023C12.6855 37.9577 12.5212 38.0033 12.3193 38.0391C12.1208 38.0781 11.9141 38.0977 11.6992 38.0977C10.612 38.0977 10.0684 37.5247 10.0684 36.3789V33.4688H9.33105V32.9609L10.1221 32.541L10.5127 31.3984H11.2207V32.5996H12.7588V33.4688H11.2207V36.3594C11.2207 36.6361 11.2891 36.8411 11.4258 36.9746C11.5658 37.1048 11.748 37.1699 11.9727 37.1699ZM16.6357 32.502C16.8669 32.502 17.0573 32.5182 17.207 32.5508L17.0947 33.6201C16.932 33.5811 16.7627 33.5615 16.5869 33.5615C16.1279 33.5615 15.7552 33.7113 15.4688 34.0107C15.1855 34.3102 15.0439 34.6992 15.0439 35.1777V38H13.8965V32.5996H14.7949L14.9463 33.5518H15.0049C15.1839 33.2295 15.4167 32.974 15.7031 32.7852C15.9928 32.5964 16.3037 32.502 16.6357 32.502ZM21.5918 38L21.3623 37.248H21.3232C21.0628 37.5768 20.8008 37.8014 20.5371 37.9219C20.2734 38.0391 19.9349 38.0977 19.5215 38.0977C18.9909 38.0977 18.5758 37.9544 18.2764 37.668C17.9801 37.3815 17.832 36.9762 17.832 36.4521C17.832 35.8955 18.0387 35.4756 18.4521 35.1924C18.8656 34.9092 19.4954 34.7546 20.3418 34.7285L21.2744 34.6992V34.4111C21.2744 34.0661 21.193 33.8089 21.0303 33.6396C20.8708 33.4671 20.6217 33.3809 20.2832 33.3809C20.0065 33.3809 19.7412 33.4215 19.4873 33.5029C19.2334 33.5843 18.9893 33.6803 18.7549 33.791L18.3838 32.9707C18.6768 32.8177 18.9974 32.7021 19.3457 32.624C19.694 32.5426 20.0228 32.502 20.332 32.502C21.0189 32.502 21.5365 32.6517 21.8848 32.9512C22.2363 33.2507 22.4121 33.721 22.4121 34.3623V38H21.5918ZM19.8828 37.2188C20.2995 37.2188 20.6331 37.1032 20.8838 36.8721C21.1377 36.6377 21.2646 36.3105 21.2646 35.8906V35.4219L20.5713 35.4512C20.0309 35.4707 19.637 35.5618 19.3896 35.7246C19.1455 35.8841 19.0234 36.1299 19.0234 36.4619C19.0234 36.7028 19.0951 36.89 19.2383 37.0234C19.3815 37.1536 19.5964 37.2188 19.8828 37.2188ZM31.3623 38H30.21V34.6797C30.21 34.263 30.1253 33.9521 29.9561 33.7471C29.79 33.542 29.5247 33.4395 29.1602 33.4395C28.6784 33.4395 28.3236 33.5843 28.0957 33.874C27.8711 34.1605 27.7588 34.6423 27.7588 35.3193V38H26.6113V30.4023H27.7588V32.3311C27.7588 32.6403 27.7393 32.9707 27.7002 33.3223H27.7734C27.9297 33.0618 28.1462 32.86 28.4229 32.7168C28.7028 32.5736 29.0283 32.502 29.3994 32.502C30.708 32.502 31.3623 33.1611 31.3623 34.4795V38ZM34.1064 38H32.959V32.5996H34.1064V38ZM32.8906 31.1689C32.8906 30.9639 32.946 30.806 33.0566 30.6953C33.1706 30.5846 33.3317 30.5293 33.54 30.5293C33.7419 30.5293 33.8981 30.5846 34.0088 30.6953C34.1227 30.806 34.1797 30.9639 34.1797 31.1689C34.1797 31.3643 34.1227 31.5189 34.0088 31.6328C33.8981 31.7435 33.7419 31.7988 33.54 31.7988C33.3317 31.7988 33.1706 31.7435 33.0566 31.6328C32.946 31.5189 32.8906 31.3643 32.8906 31.1689ZM40.3125 32.5996V33.2295L39.3896 33.4004C39.4743 33.5143 39.5443 33.6543 39.5996 33.8203C39.6549 33.9863 39.6826 34.1621 39.6826 34.3477C39.6826 34.9043 39.4906 35.3421 39.1064 35.6611C38.7223 35.9801 38.1934 36.1396 37.5195 36.1396C37.347 36.1396 37.1908 36.1266 37.0508 36.1006C36.8034 36.2536 36.6797 36.4326 36.6797 36.6377C36.6797 36.7614 36.7367 36.8542 36.8506 36.916C36.9678 36.9779 37.181 37.0088 37.4902 37.0088H38.4326C39.0283 37.0088 39.4808 37.1357 39.79 37.3896C40.0993 37.6436 40.2539 38.0098 40.2539 38.4883C40.2539 39.1003 40.0016 39.5723 39.4971 39.9043C38.9925 40.2363 38.2633 40.4023 37.3096 40.4023C36.5739 40.4023 36.0124 40.2721 35.625 40.0117C35.2376 39.7513 35.0439 39.3802 35.0439 38.8984C35.0439 38.5664 35.1481 38.2865 35.3564 38.0586C35.568 37.834 35.8626 37.6777 36.2402 37.5898C36.0872 37.5247 35.9603 37.4206 35.8594 37.2773C35.7617 37.1309 35.7129 36.9779 35.7129 36.8184C35.7129 36.6165 35.7699 36.4456 35.8838 36.3057C35.9977 36.1657 36.167 36.0273 36.3916 35.8906C36.1117 35.7702 35.8838 35.5749 35.708 35.3047C35.5355 35.0312 35.4492 34.7122 35.4492 34.3477C35.4492 33.7617 35.6331 33.3076 36.001 32.9854C36.3721 32.6631 36.8994 32.502 37.583 32.502C37.736 32.502 37.8955 32.5133 38.0615 32.5361C38.2308 32.5557 38.3577 32.5768 38.4424 32.5996H40.3125ZM36.0693 38.8398C36.0693 39.0872 36.18 39.2777 36.4014 39.4111C36.626 39.5446 36.9401 39.6113 37.3438 39.6113C37.9688 39.6113 38.4342 39.5218 38.7402 39.3428C39.0462 39.1637 39.1992 38.9261 39.1992 38.6299C39.1992 38.3955 39.1146 38.2279 38.9453 38.127C38.7793 38.0293 38.4684 37.9805 38.0127 37.9805H37.1436C36.8148 37.9805 36.5527 38.057 36.3574 38.21C36.1654 38.3662 36.0693 38.5762 36.0693 38.8398ZM36.5625 34.3477C36.5625 34.6862 36.6488 34.9466 36.8213 35.1289C36.9971 35.3112 37.2477 35.4023 37.5732 35.4023C38.2373 35.4023 38.5693 35.0475 38.5693 34.3379C38.5693 33.9863 38.4863 33.7161 38.3203 33.5273C38.1576 33.3353 37.9085 33.2393 37.5732 33.2393C37.2412 33.2393 36.9889 33.3337 36.8164 33.5225C36.6471 33.7113 36.5625 33.9863 36.5625 34.3477ZM46.0693 38H44.917V34.6797C44.917 34.263 44.8324 33.9521 44.6631 33.7471C44.4971 33.542 44.2318 33.4395 43.8672 33.4395C43.3854 33.4395 43.0306 33.5843 42.8027 33.874C42.5781 34.1605 42.4658 34.6423 42.4658 35.3193V38H41.3184V30.4023H42.4658V32.3311C42.4658 32.6403 42.4463 32.9707 42.4072 33.3223H42.4805C42.6367 33.0618 42.8532 32.86 43.1299 32.7168C43.4098 32.5736 43.7354 32.502 44.1064 32.502C45.415 32.502 46.0693 33.1611 46.0693 34.4795V38ZM52.085 38.0977C51.4111 38.0977 50.8854 37.8535 50.5078 37.3652C50.1302 36.877 49.9414 36.1917 49.9414 35.3096C49.9414 34.4242 50.1318 33.7357 50.5127 33.2441C50.8968 32.7493 51.4274 32.502 52.1045 32.502C52.8141 32.502 53.3545 32.764 53.7256 33.2881H53.7842C53.7288 32.9007 53.7012 32.5947 53.7012 32.3701V30.4023H54.8535V38H53.9551L53.7549 37.292H53.7012C53.3333 37.8291 52.7946 38.0977 52.085 38.0977ZM52.3926 37.1699C52.8646 37.1699 53.208 37.0381 53.4229 36.7744C53.6377 36.5075 53.7484 36.0762 53.7549 35.4805V35.3193C53.7549 34.639 53.6442 34.1556 53.4229 33.8691C53.2015 33.5827 52.8548 33.4395 52.3828 33.4395C51.9792 33.4395 51.6683 33.6038 51.4502 33.9326C51.2321 34.2581 51.123 34.7236 51.123 35.3291C51.123 35.9281 51.2288 36.3854 51.4404 36.7012C51.652 37.0137 51.9694 37.1699 52.3926 37.1699ZM58.8525 38.0977C58.0127 38.0977 57.3551 37.8535 56.8799 37.3652C56.4079 36.8737 56.1719 36.1982 56.1719 35.3389C56.1719 34.4567 56.3916 33.7633 56.8311 33.2588C57.2705 32.7542 57.8743 32.502 58.6426 32.502C59.3555 32.502 59.9186 32.7184 60.332 33.1514C60.7454 33.5843 60.9521 34.18 60.9521 34.9385V35.5586H57.3535C57.3698 36.0827 57.5114 36.4863 57.7783 36.7695C58.0452 37.0495 58.4212 37.1895 58.9062 37.1895C59.2253 37.1895 59.5215 37.1602 59.7949 37.1016C60.0716 37.0397 60.3678 36.9388 60.6836 36.7988V37.7314C60.4036 37.8649 60.1204 37.9593 59.834 38.0146C59.5475 38.07 59.2204 38.0977 58.8525 38.0977ZM58.6426 33.3711C58.278 33.3711 57.985 33.4867 57.7637 33.7178C57.5456 33.9489 57.4154 34.2858 57.373 34.7285H59.8242C59.8177 34.2826 59.7103 33.9456 59.502 33.7178C59.2936 33.4867 59.0072 33.3711 58.6426 33.3711ZM64.9658 33.4688H63.6475V38H62.4951V33.4688H61.6064V32.9316L62.4951 32.5801V32.2285C62.4951 31.5905 62.6449 31.1185 62.9443 30.8125C63.2438 30.5033 63.7012 30.3486 64.3164 30.3486C64.7201 30.3486 65.1172 30.4154 65.5078 30.5488L65.2051 31.418C64.9219 31.3268 64.6517 31.2812 64.3945 31.2812C64.1341 31.2812 63.9437 31.3626 63.8232 31.5254C63.7061 31.6849 63.6475 31.9258 63.6475 32.248V32.5996H64.9658V33.4688ZM67.0312 38H65.8838V32.5996H67.0312V38ZM65.8154 31.1689C65.8154 30.9639 65.8708 30.806 65.9814 30.6953C66.0954 30.5846 66.2565 30.5293 66.4648 30.5293C66.6667 30.5293 66.8229 30.5846 66.9336 30.6953C67.0475 30.806 67.1045 30.9639 67.1045 31.1689C67.1045 31.3643 67.0475 31.5189 66.9336 31.6328C66.8229 31.7435 66.6667 31.7988 66.4648 31.7988C66.2565 31.7988 66.0954 31.7435 65.9814 31.6328C65.8708 31.5189 65.8154 31.3643 65.8154 31.1689ZM73.4326 38H72.2803V34.6797C72.2803 34.263 72.1956 33.9521 72.0264 33.7471C71.8604 33.542 71.5951 33.4395 71.2305 33.4395C70.7454 33.4395 70.3906 33.5827 70.166 33.8691C69.9414 34.1556 69.8291 34.6357 69.8291 35.3096V38H68.6816V32.5996H69.5801L69.7412 33.3076H69.7998C69.9626 33.0505 70.1937 32.8519 70.4932 32.7119C70.7926 32.5719 71.1247 32.502 71.4893 32.502C72.7848 32.502 73.4326 33.1611 73.4326 34.4795V38ZM76.1768 38H75.0293V32.5996H76.1768V38ZM74.9609 31.1689C74.9609 30.9639 75.0163 30.806 75.127 30.6953C75.2409 30.5846 75.402 30.5293 75.6104 30.5293C75.8122 30.5293 75.9684 30.5846 76.0791 30.6953C76.193 30.806 76.25 30.9639 76.25 31.1689C76.25 31.3643 76.193 31.5189 76.0791 31.6328C75.9684 31.7435 75.8122 31.7988 75.6104 31.7988C75.402 31.7988 75.2409 31.7435 75.127 31.6328C75.0163 31.5189 74.9609 31.3643 74.9609 31.1689ZM79.834 37.1699C80.1139 37.1699 80.3939 37.126 80.6738 37.0381V37.9023C80.5469 37.9577 80.3825 38.0033 80.1807 38.0391C79.9821 38.0781 79.7754 38.0977 79.5605 38.0977C78.4733 38.0977 77.9297 37.5247 77.9297 36.3789V33.4688H77.1924V32.9609L77.9834 32.541L78.374 31.3984H79.082V32.5996H80.6201V33.4688H79.082V36.3594C79.082 36.6361 79.1504 36.8411 79.2871 36.9746C79.4271 37.1048 79.6094 37.1699 79.834 37.1699ZM82.9053 38H81.7578V32.5996H82.9053V38ZM81.6895 31.1689C81.6895 30.9639 81.7448 30.806 81.8555 30.6953C81.9694 30.5846 82.1305 30.5293 82.3389 30.5293C82.5407 30.5293 82.6969 30.5846 82.8076 30.6953C82.9215 30.806 82.9785 30.9639 82.9785 31.1689C82.9785 31.3643 82.9215 31.5189 82.8076 31.6328C82.6969 31.7435 82.5407 31.7988 82.3389 31.7988C82.1305 31.7988 81.9694 31.7435 81.8555 31.6328C81.7448 31.5189 81.6895 31.3643 81.6895 31.1689ZM89.3408 35.29C89.3408 36.1722 89.1146 36.8607 88.6621 37.3555C88.2096 37.8503 87.5798 38.0977 86.7725 38.0977C86.2679 38.0977 85.8219 37.9837 85.4346 37.7559C85.0472 37.528 84.7493 37.2008 84.541 36.7744C84.3327 36.348 84.2285 35.8532 84.2285 35.29C84.2285 34.4144 84.4531 33.7308 84.9023 33.2393C85.3516 32.7477 85.9847 32.502 86.8018 32.502C87.583 32.502 88.2015 32.7542 88.6572 33.2588C89.113 33.7601 89.3408 34.4372 89.3408 35.29ZM85.4102 35.29C85.4102 36.5368 85.8708 37.1602 86.792 37.1602C87.7035 37.1602 88.1592 36.5368 88.1592 35.29C88.1592 34.0563 87.7002 33.4395 86.7822 33.4395C86.3005 33.4395 85.9505 33.599 85.7324 33.918C85.5176 34.237 85.4102 34.6943 85.4102 35.29ZM95.415 38H94.2627V34.6797C94.2627 34.263 94.1781 33.9521 94.0088 33.7471C93.8428 33.542 93.5775 33.4395 93.2129 33.4395C92.7279 33.4395 92.373 33.5827 92.1484 33.8691C91.9238 34.1556 91.8115 34.6357 91.8115 35.3096V38H90.6641V32.5996H91.5625L91.7236 33.3076H91.7822C91.945 33.0505 92.1761 32.8519 92.4756 32.7119C92.7751 32.5719 93.1071 32.502 93.4717 32.502C94.7673 32.502 95.415 33.1611 95.415 34.4795V38Z" fill="#777777"/>
</svg>
